<?xml version="1.0" encoding="UTF-8" standalone="no"?>
<!-- Created with Inkscape (http://www.inkscape.org/) -->

<svg
   xmlns:dc="http://purl.org/dc/elements/1.1/"
   xmlns:cc="http://creativecommons.org/ns#"
   xmlns:rdf="http://www.w3.org/1999/02/22-rdf-syntax-ns#"
   xmlns:svg="http://www.w3.org/2000/svg"
   xmlns="http://www.w3.org/2000/svg"
   xmlns:sodipodi="http://sodipodi.sourceforge.net/DTD/sodipodi-0.dtd"
   xmlns:inkscape="http://www.inkscape.org/namespaces/inkscape"
   width="5.0270829mm"
   height="8.7312498mm"
   viewBox="0 0 5.0270829 8.7312498"
   version="1.1"
   id="svg5416"
   inkscape:version="0.92.1 r15371"
   sodipodi:docname="white_light_bulb.svg">
  <defs
     id="defs5410" />
  <sodipodi:namedview
     id="base"
     pagecolor="#ffffff"
     bordercolor="#666666"
     borderopacity="1.0"
     inkscape:pageopacity="0.0"
     inkscape:pageshadow="2"
     inkscape:zoom="0.35"
     inkscape:cx="176.64286"
     inkscape:cy="562.21427"
     inkscape:document-units="mm"
     inkscape:current-layer="layer1"
     showgrid="false"
     inkscape:window-width="1920"
     inkscape:window-height="1017"
     inkscape:window-x="-8"
     inkscape:window-y="-8"
     inkscape:window-maximized="1" />
  <metadata
     id="metadata5413">
    <rdf:RDF>
      <cc:Work
         rdf:about="">
        <dc:format>image/svg+xml</dc:format>
        <dc:type
           rdf:resource="http://purl.org/dc/dcmitype/StillImage" />
        <dc:title></dc:title>
      </cc:Work>
    </rdf:RDF>
  </metadata>
  <g
     inkscape:label="Layer 1"
     inkscape:groupmode="layer"
     id="layer1"
     transform="translate(63.745684,-288.85461)">
    <g
       style="fill:none;fill-rule:evenodd;stroke:none;stroke-width:1"
       id="events-01"
       transform="matrix(0.26458333,0,0,0.26458333,-63.745684,288.85461)">
      <rect
         style="fill:#e12e52;fill-rule:nonzero"
         height="1"
         width="9"
         y="28"
         x="5"
         id="rect190" />
      <rect
         style="fill:#e12e52;fill-rule:nonzero"
         height="1"
         width="9"
         y="29"
         x="5"
         id="rect192" />
      <rect
         style="fill:#e12e52;fill-rule:nonzero"
         height="1"
         width="6"
         y="32"
         x="7"
         id="rect194" />
      <path
         style="fill:#ffffff"
         inkscape:connector-curvature="0"
         id="path196"
         d="m 9.5,0 c 2.555239,0.02845949 4.993819,1.0700157 6.776405,2.8943101 1.782586,1.8242944 2.762287,4.2809995 2.722424,6.8267715 0,6.9629444 -5.821425,4.4887334 -5.821425,17.2789184 H 5.876875 C 5.876875,14.209815 0.0011705,16.684026 0.0011705,9.7210816 -0.03869167,7.1753096 0.94100919,4.7186045 2.7235949,2.8943101 4.5061806,1.0700157 6.9447607,0.02845949 9.5,0 Z M 7.5188156,26.310466 H 11.481184 V 13.533801 H 7.5188156 Z M 9.8392439,14.223335 H 9.1607561 V 25.661492 H 9.8392439 Z M 11.331917,13.060591 9.5,10.005008 7.6680829,13.060591 Z" />
    </g>
  </g>
</svg>
