<?xml version="1.0" encoding="UTF-8" standalone="no"?>
<!-- Created with Inkscape (http://www.inkscape.org/) -->

<svg
   xmlns:dc="http://purl.org/dc/elements/1.1/"
   xmlns:cc="http://creativecommons.org/ns#"
   xmlns:rdf="http://www.w3.org/1999/02/22-rdf-syntax-ns#"
   xmlns:svg="http://www.w3.org/2000/svg"
   xmlns="http://www.w3.org/2000/svg"
   xmlns:sodipodi="http://sodipodi.sourceforge.net/DTD/sodipodi-0.dtd"
   xmlns:inkscape="http://www.inkscape.org/namespaces/inkscape"
   width="11.377083mm"
   height="9.5249996mm"
   viewBox="0 0 11.377083 9.5249996"
   version="1.1"
   id="svg6569"
   inkscape:version="0.92.1 r15371"
   sodipodi:docname="white_clipboard.svg">
  <defs
     id="defs6563" />
  <sodipodi:namedview
     id="base"
     pagecolor="#ffffff"
     bordercolor="#666666"
     borderopacity="1.0"
     inkscape:pageopacity="0.0"
     inkscape:pageshadow="2"
     inkscape:zoom="0.35"
     inkscape:cx="-382.78572"
     inkscape:cy="49.428573"
     inkscape:document-units="mm"
     inkscape:current-layer="layer1"
     showgrid="false"
     inkscape:window-width="1920"
     inkscape:window-height="1017"
     inkscape:window-x="-8"
     inkscape:window-y="-8"
     inkscape:window-maximized="1" />
  <metadata
     id="metadata6566">
    <rdf:RDF>
      <cc:Work
         rdf:about="">
        <dc:format>image/svg+xml</dc:format>
        <dc:type
           rdf:resource="http://purl.org/dc/dcmitype/StillImage" />
        <dc:title></dc:title>
      </cc:Work>
    </rdf:RDF>
  </metadata>
  <g
     inkscape:label="Layer 1"
     inkscape:groupmode="layer"
     id="layer1"
     transform="translate(-84.269792,-152.38631)">
    <g
       style="fill:none;fill-rule:nonzero;stroke:none;stroke-width:1"
       id="article-03"
       transform="matrix(0.26458333,0,0,0.26458333,84.269792,152.38631)">
      <path
         style="fill:#ffffff"
         inkscape:connector-curvature="0"
         id="path168"
         d="M 18,28 15.854775,22.218774 6.5067088,12.960434 3.5232833,10 0,13.46315 2.9976322,16.40962 12.288871,25.528316 Z M 2.3725335,14.552366 1.3496448,13.46315 3.5659037,11.298681 4.6740331,12.387898 Z m 11.3654305,9.034911 1.420678,0.237393 v -1.759503 l 0.31255,0.307215 1.221783,3.323506 -0.88082,0.865788 -3.196527,-1.396432 -0.426204,-0.404965 1.889503,0.111715 z" />
      <path
         style="fill:#e12e52"
         inkscape:connector-curvature="0"
         id="path170"
         d="M 32.929078,11 C 27.411348,11 23,14.150858 23,18.009937 c 0.183538,2.461758 1.699073,4.613722 3.929078,5.579042 L 25,27 25.822695,26.869919 C 28.97767,26.372827 32.103066,25.697288 35.184397,24.846432 40.148936,23.401084 43,20.857272 43,18.009937 42.858156,14.150858 38.375886,11 32.929078,11 Z m 0.93617,10.811201 h -2.170213 v -2.095754 h 2.170213 z m 1.744681,-4.769647 c -0.07498,0.188875 -0.185853,0.360792 -0.326241,0.505871 -0.132942,0.134757 -0.286177,0.246984 -0.453901,0.332431 l -0.496454,0.260162 c -0.107279,0.05436 -0.207367,0.122351 -0.297872,0.202349 -0.07179,0.05262 -0.130164,0.122005 -0.170213,0.202348 -0.04417,0.07164 -0.07764,0.149579 -0.09929,0.231256 -0.0074,0.105858 -0.0074,0.212118 0,0.317977 h -1.943262 c 0,-0.101175 0,-0.231256 0,-0.390244 0.0027,-0.175741 0.02653,-0.350483 0.07092,-0.520326 0.04023,-0.184877 0.112263,-0.361037 0.212766,-0.520325 0.107698,-0.182041 0.265543,-0.327802 0.453901,-0.419151 l 0.297872,-0.144534 0.312057,-0.158989 c 0.09458,-0.06548 0.180409,-0.14322 0.255319,-0.231255 0.07261,-0.08298 0.108513,-0.192747 0.09929,-0.303523 0,-0.361337 -0.198582,-0.534779 -0.595745,-0.534779 -0.216471,-0.02129 -0.425837,0.08538 -0.539007,0.274616 -0.102001,0.189499 -0.141768,0.407301 -0.113475,0.6215 h -2.184397 c 0.02503,-0.334867 0.09176,-0.66513 0.198581,-0.982837 0.111475,-0.316705 0.285237,-0.606883 0.510638,-0.852755 0.245605,-0.269512 0.545643,-0.48155 0.879433,-0.6215 0.413759,-0.172537 0.858017,-0.256186 1.304965,-0.245709 0.435246,-0.01194 0.868675,0.06167 1.276595,0.216803 0.313632,0.107498 0.59961,0.285304 0.83688,0.520325 0.211675,0.195491 0.376642,0.437748 0.482269,0.70822 0.09356,0.235341 0.150972,0.483968 0.170213,0.737127 0.0056,0.272003 -0.0426,0.542372 -0.141844,0.794942 z" />
      <path
         style="fill:#ffffff"
         inkscape:connector-curvature="0"
         id="path172"
         d="m 10.381166,9.9431714 h 5.496477 V 11.805683 H 24.05189 V 9.9431714 h 5.538757 V 10.207149 C 30.04164,10.104491 30.506726,10.016499 31,9.9578368 V 8.4912924 H 24.05189 V 5.3675526 H 21.867393 C 22.532977,4.7968746 22.920292,3.9478204 22.924407,3.0504124 22.924407,1.3657161 21.611951,0 19.992953,0 c -1.618997,0 -2.931454,1.3657161 -2.931454,3.0504124 0.0041,0.897408 0.39143,1.7464622 1.057015,2.3171402 H 15.877643 V 8.4912924 H 9 V 14.533456 L 10.409353,16 Z m 9.611787,-8.4912925 c 0.848417,0 1.536195,0.7156878 1.536195,1.5985335 0,0.8828457 -0.687778,1.5985335 -1.536195,1.5985335 -0.848417,0 -1.536195,-0.7156878 -1.536195,-1.5985335 0,-0.8828457 0.687778,-1.5985335 1.536195,-1.5985335 z" />
      <polygon
         style="fill:#ffffff"
         points="10.410256,34.644936 10.410256,25.396973 9,24 9,36 31,36 31,26.388824 29.589744,26.668219 29.632051,34.644936 "
         id="polygon174" />
    </g>
  </g>
</svg>
